<mxfile host="app.diagrams.net" modified="2023-08-13T03:54:36.388Z" agent="Mozilla/5.0 (Windows NT 10.0; Win64; x64) AppleWebKit/537.36 (KHTML, like Gecko) Chrome/115.0.0.0 Safari/537.36" etag="pezknfYfUMs5WwfdnDmZ" version="21.6.8" type="github">
  <diagram name="Page-1" id="jffwoXQwIN7-Dc_d1E5Y">
    <mxGraphModel dx="1000" dy="535" grid="1" gridSize="10" guides="1" tooltips="1" connect="1" arrows="1" fold="1" page="1" pageScale="1" pageWidth="1100" pageHeight="850" math="0" shadow="0">
      <root>
        <mxCell id="0" />
        <mxCell id="1" parent="0" />
        <mxCell id="aIiLaP_5FUNB_zPbcydn-7" value="" style="group;sketch=1;curveFitting=1;jiggle=2;" vertex="1" connectable="0" parent="1">
          <mxGeometry x="101" y="400" width="820" height="90" as="geometry" />
        </mxCell>
        <mxCell id="aIiLaP_5FUNB_zPbcydn-2" value="&lt;font style=&quot;font-size: 17px;&quot;&gt;&amp;nbsp; &amp;nbsp; &amp;nbsp; &amp;nbsp; &amp;nbsp;Vehicle Rental System&#39;s MySQL Database&lt;/font&gt;" style="shape=partialRectangle;whiteSpace=wrap;html=1;left=0;right=0;fillColor=none;sketch=1;curveFitting=1;jiggle=2;" vertex="1" parent="aIiLaP_5FUNB_zPbcydn-7">
          <mxGeometry x="23.47971830985915" width="796.5202816901408" height="90" as="geometry" />
        </mxCell>
        <mxCell id="aIiLaP_5FUNB_zPbcydn-3" value="" style="line;strokeWidth=2;direction=south;html=1;sketch=1;curveFitting=1;jiggle=2;" vertex="1" parent="aIiLaP_5FUNB_zPbcydn-7">
          <mxGeometry width="46.940966010733455" height="90" as="geometry" />
        </mxCell>
        <mxCell id="aIiLaP_5FUNB_zPbcydn-8" value="" style="line;strokeWidth=2;direction=south;html=1;sketch=1;curveFitting=1;jiggle=2;" vertex="1" parent="aIiLaP_5FUNB_zPbcydn-7">
          <mxGeometry x="110.38461538461539" width="15.769230769230768" height="90" as="geometry" />
        </mxCell>
        <mxCell id="aIiLaP_5FUNB_zPbcydn-9" value="&lt;font style=&quot;font-size: 16px;&quot;&gt;Admin&lt;/font&gt;" style="rounded=0;whiteSpace=wrap;html=1;sketch=1;curveFitting=1;jiggle=2;" vertex="1" parent="1">
          <mxGeometry x="151" y="290" width="110" height="40" as="geometry" />
        </mxCell>
        <mxCell id="aIiLaP_5FUNB_zPbcydn-10" value="&lt;font style=&quot;font-size: 16px;&quot;&gt;Login&lt;/font&gt;" style="rounded=0;whiteSpace=wrap;html=1;sketch=1;curveFitting=1;jiggle=2;" vertex="1" parent="1">
          <mxGeometry x="291" y="290" width="110" height="40" as="geometry" />
        </mxCell>
        <mxCell id="aIiLaP_5FUNB_zPbcydn-11" value="" style="endArrow=classic;html=1;rounded=0;exitX=1;exitY=0.5;exitDx=0;exitDy=0;sketch=1;curveFitting=1;jiggle=2;" edge="1" parent="1" source="aIiLaP_5FUNB_zPbcydn-9">
          <mxGeometry width="50" height="50" relative="1" as="geometry">
            <mxPoint x="241" y="360" as="sourcePoint" />
            <mxPoint x="291" y="310" as="targetPoint" />
          </mxGeometry>
        </mxCell>
        <mxCell id="aIiLaP_5FUNB_zPbcydn-12" value="" style="endArrow=classic;html=1;rounded=0;exitX=0.322;exitY=-0.048;exitDx=0;exitDy=0;exitPerimeter=0;entryX=0.818;entryY=1;entryDx=0;entryDy=0;entryPerimeter=0;sketch=1;curveFitting=1;jiggle=2;" edge="1" parent="1">
          <mxGeometry width="50" height="50" relative="1" as="geometry">
            <mxPoint x="370.95924901408443" y="395.68000000000006" as="sourcePoint" />
            <mxPoint x="370.98" y="330" as="targetPoint" />
          </mxGeometry>
        </mxCell>
        <mxCell id="aIiLaP_5FUNB_zPbcydn-13" value="" style="endArrow=classic;html=1;rounded=0;exitX=0.339;exitY=-0.036;exitDx=0;exitDy=0;exitPerimeter=0;entryX=0.276;entryY=-0.013;entryDx=0;entryDy=0;entryPerimeter=0;sketch=1;curveFitting=1;jiggle=2;" edge="1" parent="1">
          <mxGeometry width="50" height="50" relative="1" as="geometry">
            <mxPoint x="335.5" y="330" as="sourcePoint" />
            <mxPoint x="334.31931605633804" y="398.83000000000004" as="targetPoint" />
          </mxGeometry>
        </mxCell>
        <mxCell id="aIiLaP_5FUNB_zPbcydn-14" value="Enter Login detail" style="text;html=1;strokeColor=none;fillColor=none;align=center;verticalAlign=middle;whiteSpace=wrap;rounded=0;sketch=1;curveFitting=1;jiggle=2;" vertex="1" parent="1">
          <mxGeometry x="279" y="350" width="60" height="30" as="geometry" />
        </mxCell>
        <mxCell id="aIiLaP_5FUNB_zPbcydn-15" value="Verify Details" style="text;html=1;strokeColor=none;fillColor=none;align=center;verticalAlign=middle;whiteSpace=wrap;rounded=0;sketch=1;curveFitting=1;jiggle=2;" vertex="1" parent="1">
          <mxGeometry x="366" y="350" width="60" height="30" as="geometry" />
        </mxCell>
        <mxCell id="aIiLaP_5FUNB_zPbcydn-16" value="&lt;font style=&quot;font-size: 16px;&quot;&gt;Admin Dashboard&lt;/font&gt;" style="rounded=0;whiteSpace=wrap;html=1;sketch=1;curveFitting=1;jiggle=2;" vertex="1" parent="1">
          <mxGeometry x="431" y="290" width="110" height="40" as="geometry" />
        </mxCell>
        <mxCell id="aIiLaP_5FUNB_zPbcydn-17" value="" style="endArrow=classic;html=1;rounded=0;exitX=1;exitY=0.5;exitDx=0;exitDy=0;sketch=1;curveFitting=1;jiggle=2;" edge="1" parent="1">
          <mxGeometry width="50" height="50" relative="1" as="geometry">
            <mxPoint x="401" y="309.76" as="sourcePoint" />
            <mxPoint x="431" y="309.76" as="targetPoint" />
          </mxGeometry>
        </mxCell>
        <mxCell id="aIiLaP_5FUNB_zPbcydn-18" value="&lt;font style=&quot;font-size: 16px;&quot;&gt;View/Delete Renters&lt;/font&gt;" style="rounded=0;whiteSpace=wrap;html=1;sketch=1;curveFitting=1;jiggle=2;" vertex="1" parent="1">
          <mxGeometry x="572" y="290" width="110" height="40" as="geometry" />
        </mxCell>
        <mxCell id="aIiLaP_5FUNB_zPbcydn-19" value="" style="endArrow=classic;html=1;rounded=0;sketch=1;curveFitting=1;jiggle=2;" edge="1" parent="1" target="aIiLaP_5FUNB_zPbcydn-18">
          <mxGeometry width="50" height="50" relative="1" as="geometry">
            <mxPoint x="491" y="290" as="sourcePoint" />
            <mxPoint x="631" y="240" as="targetPoint" />
            <Array as="points">
              <mxPoint x="491" y="240" />
              <mxPoint x="630" y="240" />
            </Array>
          </mxGeometry>
        </mxCell>
        <mxCell id="aIiLaP_5FUNB_zPbcydn-20" value="&lt;font style=&quot;font-size: 16px;&quot;&gt;Check Credits&lt;/font&gt;" style="rounded=0;whiteSpace=wrap;html=1;sketch=1;curveFitting=1;jiggle=2;" vertex="1" parent="1">
          <mxGeometry x="740" y="290" width="110" height="40" as="geometry" />
        </mxCell>
        <mxCell id="aIiLaP_5FUNB_zPbcydn-21" value="" style="endArrow=classic;html=1;rounded=0;entryX=0.367;entryY=-0.01;entryDx=0;entryDy=0;entryPerimeter=0;sketch=1;curveFitting=1;jiggle=2;" edge="1" parent="1" target="aIiLaP_5FUNB_zPbcydn-20">
          <mxGeometry width="50" height="50" relative="1" as="geometry">
            <mxPoint x="611" y="240" as="sourcePoint" />
            <mxPoint x="791" y="240" as="targetPoint" />
            <Array as="points">
              <mxPoint x="780" y="240" />
            </Array>
          </mxGeometry>
        </mxCell>
        <mxCell id="aIiLaP_5FUNB_zPbcydn-22" value="" style="endArrow=classic;html=1;rounded=0;exitX=0.339;exitY=-0.036;exitDx=0;exitDy=0;exitPerimeter=0;entryX=0.818;entryY=1;entryDx=0;entryDy=0;entryPerimeter=0;sketch=1;curveFitting=1;jiggle=2;" edge="1" parent="1">
          <mxGeometry width="50" height="50" relative="1" as="geometry">
            <mxPoint x="640" y="331.5" as="sourcePoint" />
            <mxPoint x="641" y="398.5" as="targetPoint" />
          </mxGeometry>
        </mxCell>
        <mxCell id="aIiLaP_5FUNB_zPbcydn-23" value="" style="endArrow=classic;html=1;rounded=0;exitX=0.638;exitY=-0.019;exitDx=0;exitDy=0;exitPerimeter=0;entryX=0.818;entryY=1;entryDx=0;entryDy=0;entryPerimeter=0;sketch=1;curveFitting=1;jiggle=2;" edge="1" parent="1">
          <mxGeometry width="50" height="50" relative="1" as="geometry">
            <mxPoint x="600.6596580281689" y="398.28999999999996" as="sourcePoint" />
            <mxPoint x="600" y="330" as="targetPoint" />
          </mxGeometry>
        </mxCell>
        <mxCell id="aIiLaP_5FUNB_zPbcydn-25" value="" style="endArrow=classic;html=1;rounded=0;exitX=0.801;exitY=-0.003;exitDx=0;exitDy=0;exitPerimeter=0;entryX=0.818;entryY=1;entryDx=0;entryDy=0;entryPerimeter=0;sketch=1;curveFitting=1;jiggle=2;" edge="1" parent="1">
          <mxGeometry width="50" height="50" relative="1" as="geometry">
            <mxPoint x="784.002463943662" y="399.9999999999999" as="sourcePoint" />
            <mxPoint x="784.51" y="332.27" as="targetPoint" />
          </mxGeometry>
        </mxCell>
        <mxCell id="aIiLaP_5FUNB_zPbcydn-26" value="&lt;font style=&quot;font-size: 16px;&quot;&gt;Renter&lt;/font&gt;" style="rounded=0;whiteSpace=wrap;html=1;sketch=1;curveFitting=1;jiggle=2;" vertex="1" parent="1">
          <mxGeometry x="133" y="550" width="110" height="40" as="geometry" />
        </mxCell>
        <mxCell id="aIiLaP_5FUNB_zPbcydn-27" value="&lt;font style=&quot;font-size: 16px;&quot;&gt;Register&lt;/font&gt;" style="rounded=0;whiteSpace=wrap;html=1;sketch=1;curveFitting=1;jiggle=2;" vertex="1" parent="1">
          <mxGeometry x="273" y="550" width="110" height="40" as="geometry" />
        </mxCell>
        <mxCell id="aIiLaP_5FUNB_zPbcydn-28" value="" style="endArrow=classic;html=1;rounded=0;exitX=1;exitY=0.5;exitDx=0;exitDy=0;sketch=1;curveFitting=1;jiggle=2;" edge="1" parent="1">
          <mxGeometry width="50" height="50" relative="1" as="geometry">
            <mxPoint x="243" y="569.66" as="sourcePoint" />
            <mxPoint x="273" y="569.66" as="targetPoint" />
          </mxGeometry>
        </mxCell>
        <mxCell id="aIiLaP_5FUNB_zPbcydn-29" value="" style="endArrow=classic;html=1;rounded=0;exitX=0.597;exitY=-0.122;exitDx=0;exitDy=0;sketch=1;curveFitting=1;jiggle=2;exitPerimeter=0;" edge="1" parent="1" source="aIiLaP_5FUNB_zPbcydn-27">
          <mxGeometry width="50" height="50" relative="1" as="geometry">
            <mxPoint x="345" y="540" as="sourcePoint" />
            <mxPoint x="339" y="490" as="targetPoint" />
          </mxGeometry>
        </mxCell>
        <mxCell id="aIiLaP_5FUNB_zPbcydn-30" value="&lt;font style=&quot;font-size: 16px;&quot;&gt;Login&lt;/font&gt;" style="rounded=0;whiteSpace=wrap;html=1;sketch=1;curveFitting=1;jiggle=2;" vertex="1" parent="1">
          <mxGeometry x="413" y="550" width="110" height="40" as="geometry" />
        </mxCell>
        <mxCell id="aIiLaP_5FUNB_zPbcydn-31" value="" style="endArrow=classic;html=1;rounded=0;exitX=0.5;exitY=0;exitDx=0;exitDy=0;sketch=1;curveFitting=1;jiggle=2;entryX=0.288;entryY=1.019;entryDx=0;entryDy=0;entryPerimeter=0;" edge="1" parent="1">
          <mxGeometry width="50" height="50" relative="1" as="geometry">
            <mxPoint x="461" y="548" as="sourcePoint" />
            <mxPoint x="460" y="490" as="targetPoint" />
          </mxGeometry>
        </mxCell>
        <mxCell id="aIiLaP_5FUNB_zPbcydn-32" value="" style="endArrow=classic;html=1;rounded=0;exitX=0.5;exitY=0;exitDx=0;exitDy=0;sketch=1;curveFitting=1;jiggle=2;entryX=0.288;entryY=1.019;entryDx=0;entryDy=0;entryPerimeter=0;" edge="1" parent="1">
          <mxGeometry width="50" height="50" relative="1" as="geometry">
            <mxPoint x="491" y="492" as="sourcePoint" />
            <mxPoint x="490" y="550" as="targetPoint" />
          </mxGeometry>
        </mxCell>
        <mxCell id="aIiLaP_5FUNB_zPbcydn-33" value="" style="endArrow=classic;html=1;rounded=0;exitX=1;exitY=0.5;exitDx=0;exitDy=0;sketch=1;curveFitting=1;jiggle=2;" edge="1" parent="1">
          <mxGeometry width="50" height="50" relative="1" as="geometry">
            <mxPoint x="383" y="569.89" as="sourcePoint" />
            <mxPoint x="413" y="570" as="targetPoint" />
          </mxGeometry>
        </mxCell>
        <mxCell id="aIiLaP_5FUNB_zPbcydn-34" value="&lt;font style=&quot;font-size: 14px;&quot;&gt;LIst/Unlist&lt;br&gt;Vehicle&lt;/font&gt;" style="rounded=0;whiteSpace=wrap;html=1;sketch=1;curveFitting=1;jiggle=2;" vertex="1" parent="1">
          <mxGeometry x="682" y="550" width="110" height="40" as="geometry" />
        </mxCell>
        <mxCell id="aIiLaP_5FUNB_zPbcydn-36" value="&lt;span style=&quot;font-size: 14px;&quot;&gt;Check bookings&lt;/span&gt;" style="rounded=0;whiteSpace=wrap;html=1;sketch=1;curveFitting=1;jiggle=2;" vertex="1" parent="1">
          <mxGeometry x="811" y="550" width="110" height="40" as="geometry" />
        </mxCell>
        <mxCell id="aIiLaP_5FUNB_zPbcydn-38" value="&lt;font style=&quot;font-size: 16px;&quot;&gt;Renter Dashboard&lt;/font&gt;" style="rounded=0;whiteSpace=wrap;html=1;sketch=1;curveFitting=1;jiggle=2;" vertex="1" parent="1">
          <mxGeometry x="553" y="550" width="110" height="40" as="geometry" />
        </mxCell>
        <mxCell id="aIiLaP_5FUNB_zPbcydn-42" value="" style="endArrow=classic;html=1;rounded=0;sketch=1;curveFitting=1;jiggle=2;" edge="1" parent="1">
          <mxGeometry width="50" height="50" relative="1" as="geometry">
            <mxPoint x="523" y="570" as="sourcePoint" />
            <mxPoint x="553" y="570" as="targetPoint" />
          </mxGeometry>
        </mxCell>
        <mxCell id="aIiLaP_5FUNB_zPbcydn-44" value="" style="endArrow=classic;html=1;rounded=0;sketch=1;curveFitting=1;jiggle=2;" edge="1" parent="1">
          <mxGeometry width="50" height="50" relative="1" as="geometry">
            <mxPoint x="617" y="590" as="sourcePoint" />
            <mxPoint x="742" y="590" as="targetPoint" />
            <Array as="points">
              <mxPoint x="617" y="640" />
              <mxPoint x="742" y="640" />
            </Array>
          </mxGeometry>
        </mxCell>
        <mxCell id="aIiLaP_5FUNB_zPbcydn-45" value="" style="endArrow=classic;html=1;rounded=0;entryX=0.367;entryY=-0.01;entryDx=0;entryDy=0;entryPerimeter=0;sketch=1;curveFitting=1;jiggle=2;" edge="1" parent="1">
          <mxGeometry width="50" height="50" relative="1" as="geometry">
            <mxPoint x="737" y="640" as="sourcePoint" />
            <mxPoint x="857" y="590" as="targetPoint" />
            <Array as="points">
              <mxPoint x="857" y="640" />
            </Array>
          </mxGeometry>
        </mxCell>
        <mxCell id="aIiLaP_5FUNB_zPbcydn-46" value="" style="endArrow=classic;html=1;rounded=0;exitX=0.638;exitY=-0.019;exitDx=0;exitDy=0;exitPerimeter=0;sketch=1;curveFitting=1;jiggle=2;" edge="1" parent="1">
          <mxGeometry width="50" height="50" relative="1" as="geometry">
            <mxPoint x="702" y="550" as="sourcePoint" />
            <mxPoint x="701" y="490" as="targetPoint" />
          </mxGeometry>
        </mxCell>
        <mxCell id="aIiLaP_5FUNB_zPbcydn-47" value="" style="endArrow=classic;html=1;rounded=0;exitX=0.638;exitY=-0.019;exitDx=0;exitDy=0;exitPerimeter=0;sketch=1;curveFitting=1;jiggle=2;" edge="1" parent="1">
          <mxGeometry width="50" height="50" relative="1" as="geometry">
            <mxPoint x="728" y="490" as="sourcePoint" />
            <mxPoint x="727" y="550" as="targetPoint" />
          </mxGeometry>
        </mxCell>
        <mxCell id="aIiLaP_5FUNB_zPbcydn-49" value="" style="endArrow=classic;html=1;rounded=0;exitX=0.638;exitY=-0.019;exitDx=0;exitDy=0;exitPerimeter=0;sketch=1;curveFitting=1;jiggle=2;" edge="1" parent="1">
          <mxGeometry width="50" height="50" relative="1" as="geometry">
            <mxPoint x="841" y="490" as="sourcePoint" />
            <mxPoint x="840" y="550" as="targetPoint" />
          </mxGeometry>
        </mxCell>
        <mxCell id="aIiLaP_5FUNB_zPbcydn-50" value="Credentials" style="text;html=1;strokeColor=none;fillColor=none;align=center;verticalAlign=middle;whiteSpace=wrap;rounded=0;" vertex="1" parent="1">
          <mxGeometry x="273" y="507" width="60" height="30" as="geometry" />
        </mxCell>
        <mxCell id="aIiLaP_5FUNB_zPbcydn-51" value="Login&lt;br&gt;Details" style="text;html=1;strokeColor=none;fillColor=none;align=center;verticalAlign=middle;whiteSpace=wrap;rounded=0;" vertex="1" parent="1">
          <mxGeometry x="407" y="508" width="60" height="30" as="geometry" />
        </mxCell>
        <mxCell id="aIiLaP_5FUNB_zPbcydn-52" value="Responce" style="text;html=1;strokeColor=none;fillColor=none;align=center;verticalAlign=middle;whiteSpace=wrap;rounded=0;" vertex="1" parent="1">
          <mxGeometry x="493" y="507" width="60" height="30" as="geometry" />
        </mxCell>
        <mxCell id="aIiLaP_5FUNB_zPbcydn-53" value="Fetch Renters&lt;br&gt;list" style="text;html=1;strokeColor=none;fillColor=none;align=center;verticalAlign=middle;whiteSpace=wrap;rounded=0;sketch=1;curveFitting=1;jiggle=2;" vertex="1" parent="1">
          <mxGeometry x="545" y="349" width="60" height="30" as="geometry" />
        </mxCell>
        <mxCell id="aIiLaP_5FUNB_zPbcydn-54" value="Delete&lt;br&gt;Accounts" style="text;html=1;strokeColor=none;fillColor=none;align=center;verticalAlign=middle;whiteSpace=wrap;rounded=0;sketch=1;curveFitting=1;jiggle=2;" vertex="1" parent="1">
          <mxGeometry x="640" y="349" width="60" height="30" as="geometry" />
        </mxCell>
        <mxCell id="aIiLaP_5FUNB_zPbcydn-55" value="Add new veehicles" style="text;html=1;strokeColor=none;fillColor=none;align=center;verticalAlign=middle;whiteSpace=wrap;rounded=0;" vertex="1" parent="1">
          <mxGeometry x="637" y="508" width="60" height="30" as="geometry" />
        </mxCell>
        <mxCell id="aIiLaP_5FUNB_zPbcydn-56" value="Fetch listed vehicles and delete" style="text;html=1;strokeColor=none;fillColor=none;align=center;verticalAlign=middle;whiteSpace=wrap;rounded=0;" vertex="1" parent="1">
          <mxGeometry x="726" y="514" width="79" height="18" as="geometry" />
        </mxCell>
        <mxCell id="aIiLaP_5FUNB_zPbcydn-57" value="Fetch&amp;nbsp; Credit Details" style="text;html=1;strokeColor=none;fillColor=none;align=center;verticalAlign=middle;whiteSpace=wrap;rounded=0;" vertex="1" parent="1">
          <mxGeometry x="784" y="356" width="79" height="18" as="geometry" />
        </mxCell>
        <mxCell id="aIiLaP_5FUNB_zPbcydn-58" value="Fetch&amp;nbsp; Credit Details" style="text;html=1;strokeColor=none;fillColor=none;align=center;verticalAlign=middle;whiteSpace=wrap;rounded=0;" vertex="1" parent="1">
          <mxGeometry x="841" y="513" width="79" height="18" as="geometry" />
        </mxCell>
      </root>
    </mxGraphModel>
  </diagram>
</mxfile>
